# xmcd CD database file
#
# Track frame offsets:
#	150
#	9839
#	18171
#	37818
#	50739
#	62105
#	76424
#	93919
#	109072
#	122472
#	136586
#	150190
#	167800
#	178826
#	191836
#	204515
#	219852
#
# Disc length: 3025 seconds
#
# Revision: 0
# Processed by: cddbd v1.5.2PL0 Copyright (c) Steve Scherf et al.
# Submitted via: CDex 1.51
#
DISCID=cd0bcf11
DTITLE=The Honky Tonk Playboys - Do You Remember
DYEAR=1999
DGENRE=Blues
TTITLE0=Lost John Boogie
TTITLE1=I Ain't Never
TTITLE2=I Never Go Around Mirrors
TTITLE3=Under Your Spell Again
TTITLE4=Watermelon Time In Georgia
TTITLE5=Promised Land
TTITLE6=Panhandle Rag
TTITLE7=Blues You Never Lose
TTITLE8=Move It On Over
TTITLE9=Cozy Inn
TTITLE10=Four Or Five Times
TTITLE11=Nobody's Darling But Mine
TTITLE12=Honky Tonk Song
TTITLE13=I'm Waiting Just For You
TTITLE14=I'm An Old, Old Man
TTITLE15=MIdnight Train
TTITLE16=Maui Chimes
EXTD=YEAR: 1999
EXTT0=
EXTT1=
EXTT2=
EXTT3=
EXTT4=
EXTT5=
EXTT6=
EXTT7=
EXTT8=
EXTT9=
EXTT10=
EXTT11=
EXTT12=
EXTT13=
EXTT14=
EXTT15=
EXTT16=
PLAYORDER=
